<svg version="1.1" id="Layer_1" xmlns="http://www.w3.org/2000/svg" xmlns:xlink="http://www.w3.org/1999/xlink" x="0px" y="0px"
	 width="100%" viewBox="0 0 1024 576" enable-background="new 0 0 1024 576" xml:space="preserve">
<path fill="#000000" opacity="1.000000" stroke="none" 
	d="
M463.798279,319.012054 
	C441.828003,324.143341 420.147156,324.251007 399.460846,316.341400 
	C376.812805,307.681671 363.360657,290.779602 359.577332,266.200226 
	C354.408081,232.616898 374.458405,201.695145 404.747864,190.672333 
	C411.653503,188.159256 418.872253,186.780609 426.262451,186.766953 
	C450.590088,186.721954 474.917999,186.785934 499.245453,186.707123 
	C507.072449,186.681763 514.411316,188.463150 521.447327,191.774597 
	C533.228882,197.319565 541.860657,212.335220 540.686523,225.334305 
	C540.283752,229.793503 540.057983,234.210968 538.396729,238.538437 
	C534.262817,249.307053 526.892395,256.255615 515.702454,259.111359 
	C514.272766,259.476257 512.694214,259.503876 511.468903,261.560242 
	C516.872498,270.426819 520.708740,280.513733 526.642822,289.410522 
	C529.460327,288.735168 529.913391,286.604675 530.646362,284.851105 
	C541.886475,257.958801 554.949158,231.895828 566.796814,205.281006 
	C568.689880,201.028397 570.102844,196.540894 572.240845,192.423157 
	C576.030090,185.125153 584.560059,184.404282 589.875610,190.796371 
	C592.218689,193.614014 594.107483,196.747040 595.543945,200.168610 
	C609.790344,234.101578 624.078003,268.017273 638.368103,301.931885 
	C639.208008,303.925232 640.067322,305.922516 641.094910,307.822083 
	C643.127686,311.579529 646.123718,313.113251 650.220337,311.135132 
	C652.080994,310.236694 654.025635,309.970184 656.008667,309.740692 
	C657.740906,309.540222 659.884155,308.449707 660.753052,310.896454 
	C661.480774,312.945435 660.496948,314.868134 658.992554,316.313568 
	C656.422913,318.782471 653.075806,318.808136 650.040771,318.025299 
	C647.061279,317.256836 644.668640,316.919312 641.438599,317.945282 
	C637.647034,319.149628 633.195801,318.306000 629.030762,318.300293 
	C616.238708,318.282776 616.238708,318.273376 611.259094,306.465820 
	C605.265747,292.254272 605.265747,292.236938 589.688171,292.236298 
	C580.690613,292.235931 571.682800,292.568909 562.699768,292.225525 
	C558.238831,292.055023 556.099976,293.752319 554.600464,297.707764 
	C552.419312,303.461151 549.677673,308.999481 547.334167,314.695007 
	C546.216492,317.411377 544.390930,318.403839 541.539673,318.365417 
	C533.043030,318.250824 524.543762,318.223633 516.046753,318.300629 
	C513.182251,318.326599 511.474701,317.178650 510.179382,314.633026 
	C498.544189,291.767303 484.422882,270.294830 472.518829,247.577072 
	C470.924591,244.534592 467.666138,241.236160 469.464752,238.083633 
	C471.213531,235.018478 475.586548,236.865448 478.774445,236.763412 
	C486.265503,236.523651 493.775360,236.845291 501.264465,236.575043 
	C510.466064,236.242996 514.964600,232.047516 514.670349,224.617722 
	C514.424561,218.412170 509.891663,213.560867 503.636658,213.219177 
	C498.317139,212.928574 492.977295,212.993317 487.646057,212.937592 
	C470.165192,212.754837 452.681976,212.706589 435.203735,212.385956 
	C414.435211,212.004959 396.149109,222.658875 388.673340,239.980209 
	C382.518311,254.241257 385.084167,267.998322 391.531067,281.434296 
	C391.812286,282.020447 392.280579,282.541260 392.748413,283.005096 
	C393.076965,283.330872 393.552887,283.508026 394.297180,283.949951 
	C395.268097,281.707123 394.550446,279.652802 394.304993,277.609741 
	C392.641571,263.765961 395.517456,251.136612 404.468231,240.187073 
	C407.146332,236.910980 407.882843,236.672897 411.873932,237.194275 
	C404.436401,246.545441 407.825195,256.388763 410.311371,266.476379 
	C414.989716,243.228729 425.971741,225.185272 449.065094,216.066788 
	C450.058380,218.806732 448.745270,219.457687 447.796356,220.354462 
	C436.223083,231.291565 431.882019,245.130676 432.494171,260.572388 
	C432.981110,272.855743 437.589691,283.933807 444.740112,293.855072 
	C451.635986,303.423248 461.297699,306.751404 472.772797,305.368500 
	C475.210327,305.074707 477.621857,304.565216 480.395416,304.753448 
	C477.063873,311.933533 472.245514,317.229584 463.798279,319.012054 
M573.238708,267.049713 
	C579.867615,266.453583 586.630127,268.213379 593.919250,266.305969 
	C590.005249,256.704468 586.943542,247.446808 581.415344,237.804932 
	C577.392029,247.262070 573.875305,255.464188 570.422546,263.693085 
	C569.630493,265.580597 570.008362,266.979919 573.238708,267.049713 
z"/>
<path fill="#000000" opacity="1.000000" stroke="none" 
	d="
M275.086792,298.994202 
	C272.966492,303.932129 270.823669,308.454132 269.067719,313.121643 
	C267.532562,317.202240 264.843597,318.544403 260.618530,318.320496 
	C254.970779,318.021210 249.296082,318.263641 243.633957,318.193237 
	C237.552628,318.117676 236.651917,316.915436 239.018600,311.457764 
	C242.857956,302.604095 246.859680,293.819550 250.883011,285.047211 
	C263.026581,258.569702 275.231537,232.120346 287.360840,205.636322 
	C288.883606,202.311371 290.105591,198.848083 291.451019,195.442627 
	C293.390137,190.534531 296.176697,186.354828 302.027985,186.216660 
	C308.100616,186.073257 311.172272,190.307068 313.380310,195.250870 
	C319.013428,207.863083 324.569641,220.509583 330.177216,233.133224 
	C341.121704,257.771149 352.032623,282.424164 363.054810,307.027283 
	C367.940582,317.932953 367.873352,318.176086 356.109406,318.199310 
	C351.279449,318.208832 346.449097,318.125336 341.619629,318.166260 
	C338.933105,318.189026 337.413788,317.075562 336.472046,314.453705 
	C334.504547,308.976105 331.932983,303.707123 330.121704,298.184479 
	C328.655853,293.715179 326.297424,291.951782 321.432159,292.088745 
	C309.283844,292.430756 297.110413,292.465698 284.965302,292.067749 
	C279.665527,291.894135 276.247406,293.130798 275.086792,298.994202 
M309.913818,265.701630 
	C311.327698,265.512024 312.972748,266.132660 314.275391,264.151428 
	C311.513428,255.454880 307.414490,247.090164 302.555939,237.366028 
	C298.418335,247.338547 294.842224,255.957809 290.796448,265.709015 
	C297.544159,265.709015 303.292725,265.709015 309.913818,265.701630 
z"/>
<path fill="#000000" opacity="1.000000" stroke="none" 
	d="
M956.962036,236.248627 
	C956.739502,262.869263 956.660583,289.026703 956.661865,315.171661 
	C956.662781,335.362915 945.709534,349.743378 925.433594,353.544342 
	C909.105713,356.605255 894.003723,353.459167 881.090637,342.159912 
	C877.567017,339.076569 877.205811,336.490753 880.383118,333.014404 
	C883.612122,329.481476 886.505493,325.641785 889.651184,321.808105 
	C893.059448,323.225494 895.125488,325.918152 897.595154,328.068542 
	C905.737183,335.158051 920.294861,336.088593 927.759216,329.971252 
	C933.182068,325.527161 934.910583,319.773743 933.267212,311.296722 
	C932.656616,311.348846 931.969421,311.259583 931.399475,311.477325 
	C899.884644,323.517303 872.784424,305.163361 872.494202,271.563538 
	C872.263550,244.858658 890.534363,226.702377 916.612366,227.751633 
	C922.743958,227.998352 928.308777,230.103516 933.939270,233.528961 
	C934.848816,229.138046 938.130676,228.848053 941.568298,228.834656 
	C944.400696,228.823624 947.233643,228.753967 950.065430,228.786713 
	C956.184753,228.857452 956.595520,229.294769 956.962036,236.248627 
M926.809387,291.433990 
	C934.593994,283.518311 935.562439,273.846252 933.794495,263.578552 
	C931.985962,253.074509 921.892822,246.465622 911.527100,248.802124 
	C901.205078,251.128769 895.531921,259.288025 895.301758,272.138092 
	C894.976135,290.314484 910.005981,299.907654 926.809387,291.433990 
z"/>
<path fill="#000000" opacity="1.000000" stroke="none" 
	d="
M204.784256,183.731049 
	C215.310791,184.628647 224.265457,188.286789 232.306107,194.349503 
	C234.141922,195.733749 235.253510,196.965515 233.490463,199.203796 
	C229.476074,204.300339 225.528992,209.450439 221.596100,214.610443 
	C219.657684,217.153671 217.675095,215.691101 215.915649,214.588989 
	C211.941620,212.099670 207.929047,209.806610 203.247314,208.884933 
	C200.929916,208.428696 198.639053,208.234726 196.306046,208.602142 
	C188.182953,209.881470 183.752197,213.807541 183.308945,220.119171 
	C182.922745,225.618271 186.188843,229.337830 194.094528,231.988037 
	C200.241043,234.048492 206.612823,235.499802 212.632736,237.863129 
	C230.391647,244.835037 238.596069,257.558960 239.532700,276.036530 
	C240.488281,294.888123 227.792160,311.030762 213.537949,316.170105 
	C193.447266,323.413879 170.972397,319.741730 156.515106,300.679230 
	C154.190186,297.613739 154.063080,294.898773 157.421066,292.063934 
	C162.472672,287.799377 167.134521,283.073090 172.009750,278.498413 
	C174.721283,279.563782 175.385422,282.170258 176.689911,284.181091 
	C182.938858,293.813660 194.348465,297.304535 204.666901,292.427124 
	C211.266571,289.307526 213.863754,283.697540 213.852356,276.572876 
	C213.841736,269.926086 211.355270,264.774689 204.984161,262.349152 
	C199.086990,260.104034 193.091324,257.910767 186.949188,256.554230 
	C167.404190,252.237579 159.516357,238.119873 158.882568,223.032089 
	C158.161758,205.873032 169.231888,190.915131 185.539337,185.525970 
	C191.729935,183.480179 197.995178,183.669037 204.784256,183.731049 
z"/>
<path fill="#000000" opacity="1.000000" stroke="none" 
	d="
M869.657959,259.607391 
	C868.610107,269.087555 865.264404,276.779419 856.954041,281.505829 
	C854.012878,283.178589 853.898254,284.864838 856.158813,287.368347 
	C863.072998,295.025665 869.818726,302.834930 876.651917,310.565704 
	C878.302246,312.432800 879.857361,314.313477 880.124329,317.278778 
	C875.423340,319.084167 870.692566,317.559631 866.222839,318.306335 
	C855.848877,320.039337 848.955933,315.350708 843.140137,307.312347 
	C838.271362,300.582916 832.629150,294.412537 827.313843,288.007568 
	C826.689636,287.255524 826.121460,286.376648 824.610901,286.235931 
	C823.430908,289.683502 824.093323,293.310272 824.023438,296.846222 
	C823.914734,302.342377 823.939392,307.843414 824.028137,313.340424 
	C824.081848,316.665802 822.694031,318.270111 819.282715,318.216003 
	C814.119080,318.134094 808.952148,318.132874 803.788574,318.218109 
	C800.391418,318.274170 798.955505,316.650909 798.963562,313.364075 
	C799.028870,286.707367 799.064453,260.050598 799.125305,233.393860 
	C799.134094,229.538681 800.889221,227.777344 804.979309,227.819275 
	C816.473999,227.937164 827.972168,227.655396 839.467896,227.724930 
	C858.358765,227.839172 870.044495,240.065369 869.657959,259.607391 
M835.155212,248.687012 
	C832.507629,248.770493 829.860535,248.879898 827.212341,248.929611 
	C824.921265,248.972641 823.045837,249.768356 823.415527,252.348206 
	C824.042542,256.724396 821.343506,261.538544 825.104675,265.488312 
	C825.195923,265.584167 825.421204,265.580780 825.582947,265.577118 
	C830.698608,265.461090 835.887573,266.279510 840.890198,264.651245 
	C844.312073,263.537506 845.822571,260.921509 845.873535,257.423553 
	C845.927368,253.733566 844.357483,250.958832 840.846497,249.652481 
	C839.324890,249.086349 837.597351,249.073929 835.155212,248.687012 
z"/>
<path fill="#000000" opacity="1.000000" stroke="none" 
	d="
M83.001389,186.690033 
	C105.654144,186.679810 127.808266,186.779297 149.959503,186.571350 
	C154.707016,186.526794 156.629730,187.981644 156.296158,192.824554 
	C155.976379,197.467163 156.024155,202.156235 156.247528,206.808701 
	C156.441925,210.857437 154.996414,212.536163 150.806473,212.400757 
	C144.151962,212.185715 137.464188,212.713623 130.828125,212.309326 
	C125.969398,212.013290 124.845894,214.033661 124.892227,218.369095 
	C125.045197,232.681183 125.000130,246.996185 124.931763,261.309601 
	C124.850792,278.263214 124.572159,295.216431 124.590919,312.169617 
	C124.595863,316.638855 123.052711,318.548645 118.460953,318.296570 
	C113.645378,318.032196 108.787460,318.002472 103.977684,318.319702 
	C99.117516,318.640198 97.644371,316.655090 97.668686,311.948181 
	C97.818375,282.967407 97.827950,253.985077 97.709732,225.003967 
	C97.650139,210.395294 99.855087,212.470383 85.047546,212.306992 
	C79.718315,212.248184 74.383110,212.171280 69.059486,212.356766 
	C65.476868,212.481583 63.812469,211.204346 63.943916,207.482895 
	C64.131813,202.163513 64.010162,196.845779 64.338791,191.513885 
	C64.593269,187.385147 66.427551,186.488739 70.011383,186.650253 
	C74.166985,186.837524 78.337624,186.691299 83.001389,186.690033 
z"/>
<path fill="#000000" opacity="1.000000" stroke="none" 
	d="
M743.788940,318.365997 
	C725.549622,316.079010 712.234375,307.338867 705.853638,290.299347 
	C699.153687,272.407440 701.884399,255.246094 714.143677,240.573059 
	C725.937012,226.457764 750.672913,222.822739 769.717834,231.265549 
	C785.247253,238.149902 794.556824,256.473846 793.775452,274.922424 
	C792.812805,297.653015 775.033203,314.252655 758.104004,317.782867 
	C753.556885,318.731079 748.902771,319.388916 743.788940,318.365997 
M765.676941,257.894623 
	C759.456421,250.365707 751.406372,247.584595 742.020325,249.659180 
	C732.979004,251.657608 728.552979,258.382507 726.709778,266.920441 
	C726.088257,269.799622 726.092041,272.898834 726.314880,275.859497 
	C727.004272,285.020081 733.756348,293.115021 741.713745,294.669495 
	C753.932495,297.056427 762.878723,293.512390 767.417175,283.779663 
	C771.377625,275.286377 771.153809,266.686432 765.676941,257.894623 
z"/>
<path fill="#000000" opacity="1.000000" stroke="none" 
	d="
M666.541748,314.490723 
	C661.349182,307.630249 662.207581,301.634888 668.704041,297.202484 
	C674.566223,293.202789 683.280090,294.805817 686.847168,300.540100 
	C690.231628,305.980713 688.172974,313.702942 682.110962,316.866852 
	C676.684143,319.699219 671.477051,318.644806 666.541748,314.490723 
z"/>
<path fill="#000000" opacity="1.000000" stroke="none" 
	d="
M833.893799,331.776611 
	C841.765503,330.054932 849.252258,332.136078 856.700562,331.433594 
	C859.885681,331.133209 861.190613,333.709412 862.653809,336.342010 
	C865.111328,333.510437 866.857300,330.068115 870.951538,332.274780 
	C871.373840,334.119629 870.008240,335.121674 869.255554,336.343048 
	C867.256897,339.585938 864.821838,342.593384 864.940552,346.754517 
	C864.986450,348.363800 864.173462,349.780060 862.297241,349.760773 
	C860.273743,349.740021 859.929016,348.052277 859.935547,346.552643 
	C859.958618,341.218567 856.603149,337.729218 853.686829,334.146484 
	C853.247437,334.146484 853.080017,334.111847 852.932495,334.151428 
	C846.456238,335.889862 845.324829,340.567017 846.041687,346.408295 
	C846.228210,347.928528 845.673828,349.537811 843.710205,349.632416 
	C841.554382,349.736298 840.859497,348.285461 840.820862,346.394043 
	C840.780029,344.396057 840.671448,342.391663 840.779236,340.400177 
	C840.971497,336.849731 839.448425,335.463593 835.736145,336.298126 
	C834.448486,339.583740 835.362244,343.102448 835.096375,346.515961 
	C834.936279,348.571350 834.475220,350.156006 831.971802,350.060364 
	C829.799866,349.977356 829.078369,348.544403 829.127319,346.710999 
	C829.233826,342.720673 829.496887,338.734589 829.691162,334.746552 
	C829.809631,332.314240 831.397583,331.754395 833.893799,331.776611 
z"/>
<path fill="#000000" opacity="1.000000" stroke="none" 
	d="
M386.054352,345.050537 
	C384.438507,342.998383 382.297516,341.763763 381.506836,339.019409 
	C385.581238,338.283051 388.169830,340.868408 391.025635,342.618622 
	C393.651093,340.005371 394.424652,337.862061 391.340698,335.398163 
	C386.795380,331.766815 386.118774,325.440887 381.903961,321.508667 
	C381.252075,320.900543 381.191437,319.571533 381.941986,318.722168 
	C382.988098,317.538269 384.397705,317.726898 385.636414,318.268707 
	C390.196442,320.263397 393.121918,323.705231 394.199402,328.584839 
	C394.590942,330.357788 394.560669,332.231354 396.263794,334.728882 
	C398.191528,332.542297 399.876465,330.399841 401.814362,328.517944 
	C403.018280,327.348785 404.667938,326.646759 406.394318,327.580566 
	C408.152466,328.531555 407.235535,330.211487 407.345764,331.623840 
	C407.728546,336.527496 406.209015,340.559875 401.772675,342.993927 
	C398.483887,344.798370 399.316559,348.097107 398.583527,351.409149 
	C394.670441,348.418243 389.297546,349.502350 386.054352,345.050537 
z"/>
<path fill="#000000" opacity="1.000000" stroke="none" 
	d="
M543.193970,347.192474 
	C541.486023,351.010742 539.551636,350.767822 537.710571,347.854736 
	C536.565735,346.043243 535.799194,343.992676 534.434448,341.160339 
	C534.226318,343.853363 534.122131,345.706329 533.928345,347.549896 
	C533.771912,349.037323 533.045959,350.081970 531.386719,350.027527 
	C529.992371,349.981720 529.163208,349.030731 529.131897,347.794464 
	C529.014099,343.140747 529.000854,338.482300 529.064880,333.827209 
	C529.086365,332.269135 530.215210,331.485840 531.699951,331.330780 
	C533.641052,331.128052 535.380066,331.455566 536.300720,333.474915 
	C537.401123,335.888702 538.492249,338.306763 540.024658,341.687836 
	C541.089722,339.042664 542.080078,337.198059 542.568359,335.228912 
	C543.335815,332.133972 545.277039,331.287506 548.130554,331.680176 
	C551.708862,332.172577 550.768921,334.934357 550.750488,337.112335 
	C550.725159,340.105072 550.528259,343.097748 550.348572,346.087097 
	C550.261353,347.537018 550.504639,349.417328 548.467590,349.626190 
	C546.170837,349.861603 545.898438,347.984985 545.729736,346.268555 
	C545.616882,345.119904 545.591553,343.962677 545.444336,341.330505 
	C544.406128,344.010162 543.857361,345.426483 543.193970,347.192474 
z"/>
<path fill="#000000" opacity="1.000000" stroke="none" 
	d="
M797.977661,331.701019 
	C802.495972,333.549591 805.495239,341.850952 803.638245,346.285187 
	C802.178772,349.770142 795.378174,351.777008 790.841003,350.152740 
	C789.066406,349.517487 788.782227,348.142365 788.764343,346.611481 
	C788.727600,343.468689 788.747437,340.324585 788.789490,337.181610 
	C788.866028,331.460968 789.497009,330.882263 795.101318,331.315247 
	C795.924927,331.378906 796.742126,331.525879 797.977661,331.701019 
z"/>
<path fill="#000000" opacity="1.000000" stroke="none" 
	d="
M765.283447,350.179260 
	C760.714722,349.601318 760.595154,344.487488 757.063660,343.094543 
	C755.727539,344.559418 756.483765,346.356140 756.041321,347.898041 
	C755.672729,349.183014 754.899048,349.929657 753.579468,349.940857 
	C752.178833,349.952759 751.330322,349.002502 751.292175,347.767700 
	C751.143616,342.953125 750.858154,338.110931 751.225586,333.325256 
	C751.418396,330.813110 755.509216,330.593597 757.666382,332.919647 
	C758.562439,333.885803 759.155334,335.126678 759.998291,336.150177 
	C760.805115,337.129700 761.022766,338.612610 762.877991,339.286102 
	C762.877991,337.302216 762.817932,335.524445 762.897095,333.752930 
	C762.959656,332.353973 763.874878,331.731995 765.219849,331.682129 
	C766.283936,331.642639 767.133057,331.956451 767.705933,332.953247 
	C768.851990,334.947205 768.078857,348.022400 766.622803,349.877625 
	C766.457397,350.088379 766.011536,350.078949 765.283447,350.179260 
z"/>
<path fill="#000000" opacity="1.000000" stroke="none" 
	d="
M526.002563,348.424133 
	C523.357788,351.362732 521.354370,349.978241 519.706482,347.829285 
	C518.114746,345.753601 516.797058,343.467743 515.146240,340.949768 
	C514.210999,343.426544 514.691040,345.524750 514.710144,347.602173 
	C514.721863,348.877045 514.166321,349.869263 512.726318,350.007385 
	C511.193085,350.154449 510.059662,349.576019 509.872040,347.954926 
	C509.395813,343.841064 508.567383,339.742828 509.033051,335.568634 
	C509.197052,334.098724 509.243652,332.427734 511.043579,331.931122 
	C512.880249,331.424347 514.728516,331.495056 516.053223,333.138367 
	C517.482666,334.911499 518.804260,336.771484 520.613281,339.179993 
	C521.010376,336.998138 521.360535,335.573120 521.508484,334.127411 
	C521.671143,332.537476 522.305237,331.657227 524.020203,331.815765 
	C525.716614,331.972565 526.240234,333.078308 526.234375,334.555023 
	C526.216553,339.036835 526.162292,343.518463 526.002563,348.424133 
z"/>
<path fill="#000000" opacity="1.000000" stroke="none" 
	d="
M571.958618,333.772827 
	C574.772461,330.417511 577.139465,331.025574 579.181396,334.139832 
	C580.356079,335.931366 581.437317,337.784149 583.259277,340.744476 
	C583.259277,337.584473 583.176453,335.582642 583.285156,333.591248 
	C583.373657,331.970612 584.468445,331.312714 586.013733,331.412781 
	C587.361633,331.500061 588.202942,332.244537 588.214966,333.611511 
	C588.255798,338.249084 588.253540,342.887360 588.219177,347.525024 
	C588.209900,348.771912 587.725708,349.787415 586.319031,350.042389 
	C584.703491,350.335236 583.297729,349.883087 582.364319,348.555450 
	C580.847229,346.397614 579.461426,344.147461 577.512451,341.157318 
	C577.353577,343.498291 577.250061,345.138428 577.128845,346.777222 
	C577.011047,348.368835 576.603760,349.838898 574.675598,349.921844 
	C572.429199,350.018463 571.933716,348.393463 571.908386,346.610291 
	C571.849487,342.469513 571.879700,338.327423 571.958618,333.772827 
z"/>
<path fill="#000000" opacity="1.000000" stroke="none" 
	d="
M431.704041,349.798889 
	C429.170349,350.332397 428.104858,349.235779 428.075684,347.250610 
	C428.012207,342.932861 428.049561,338.611481 428.163086,334.294617 
	C428.198761,332.938782 428.722046,331.659668 430.273376,331.245636 
	C431.743073,330.853333 432.906067,331.444061 433.775940,332.566162 
	C435.263550,334.485168 436.677032,336.461578 438.197937,338.516998 
	C439.934570,336.300201 437.560730,331.725494 441.518982,332.049805 
	C445.516632,332.377319 443.764587,336.497223 444.089722,339.030151 
	C444.383881,341.322083 444.245880,343.679108 444.180756,346.004150 
	C444.135437,347.622253 444.339508,349.518494 442.101349,349.975677 
	C440.164368,350.371368 439.071533,349.073395 437.970856,347.760925 
	C436.713257,346.261475 436.406219,344.046082 434.280457,342.953400 
	C432.329773,344.798248 434.290527,347.963013 431.704041,349.798889 
z"/>
<path fill="#000000" opacity="1.000000" stroke="none" 
	d="
M500.958008,331.621704 
	C505.633301,334.217468 507.873718,337.811798 507.072021,342.836304 
	C506.472076,346.596527 504.280701,349.251923 500.464569,350.021454 
	C496.436981,350.833588 492.368195,350.882965 489.842804,346.822327 
	C487.660461,343.313324 486.464630,339.391327 488.955292,335.613556 
	C491.683929,331.474731 495.663757,329.903107 500.958008,331.621704 
M493.923187,339.303833 
	C492.920471,342.086334 493.548462,344.306305 496.432556,345.358368 
	C498.433319,346.088196 500.172241,345.120361 500.960388,343.288818 
	C501.963745,340.957092 501.465698,338.525116 499.408508,337.026703 
	C497.283966,335.479218 495.318512,336.114380 493.923187,339.303833 
z"/>
<path fill="#000000" opacity="1.000000" stroke="none" 
	d="
M471.667145,343.911407 
	C471.661438,339.806793 471.661438,336.169708 471.661438,332.356415 
	C475.123840,331.077698 478.468994,331.438690 481.674957,331.897980 
	C485.274780,332.413727 487.414764,336.275879 485.772766,340.035034 
	C484.370605,343.245148 484.504181,346.039978 485.851776,348.978607 
	C482.180054,350.353577 482.180054,350.353577 477.972290,345.174286 
	C476.335632,346.609039 477.409393,350.927216 473.653595,349.906372 
	C470.697052,349.102783 472.029633,346.344788 471.667145,343.911407 
z"/>
<path fill="#000000" opacity="1.000000" stroke="none" 
	d="
M561.604736,345.197571 
	C562.569885,345.244263 563.245117,345.130798 563.895142,345.214050 
	C565.731323,345.449219 568.366455,344.730896 568.265747,347.835815 
	C568.166321,350.900757 565.550537,350.094452 563.717651,350.249817 
	C562.233887,350.375641 560.722046,350.166534 559.237427,350.286926 
	C555.765564,350.568542 554.377380,348.961609 554.599792,345.591400 
	C554.697693,344.105927 554.661377,342.592651 554.500549,341.112152 
	C553.327576,330.316895 553.422180,330.932709 565.455322,331.193329 
	C566.949890,331.225677 568.713684,331.424286 568.707581,333.451477 
	C568.701355,335.525940 567.138611,336.160675 565.292358,336.266083 
	C564.000366,336.339844 562.711670,336.470123 561.503723,336.568451 
	C561.212158,337.880981 562.065796,337.843384 562.644958,337.970947 
	C564.507263,338.381104 567.183777,337.965790 567.196960,340.735687 
	C567.211731,343.839478 564.317871,342.620270 562.605591,343.098969 
	C561.539368,343.397064 560.029541,343.350830 561.604736,345.197571 
z"/>
<path fill="#000000" opacity="1.000000" stroke="none" 
	d="
M782.042542,334.138794 
	C783.594910,338.220764 785.014771,341.939362 786.415588,345.665100 
	C786.929871,347.032776 787.903748,348.584473 786.281006,349.704468 
	C784.995117,350.591980 783.215881,350.620117 782.114990,349.463379 
	C778.921936,346.108582 775.891846,346.298462 772.670105,349.335724 
	C771.918762,350.044128 770.855469,350.249573 769.898132,349.665314 
	C768.705566,348.937531 768.575684,347.626221 769.016418,346.574188 
	C770.936218,341.990967 772.577820,337.202515 775.178833,333.022797 
	C777.082458,329.963867 779.953064,330.733887 782.042542,334.138794 
z"/>
<path fill="#000000" opacity="1.000000" stroke="none" 
	d="
M424.314148,345.974457 
	C424.802551,346.837738 425.295227,347.673065 425.057526,348.061829 
	C422.417267,352.380157 418.210388,349.562225 414.743622,350.139709 
	C412.250885,350.554962 411.159943,348.734344 411.114349,346.453522 
	C411.038025,342.635895 411.072571,338.814972 411.124268,334.996277 
	C411.153656,332.822662 412.239624,331.631622 414.520905,331.623535 
	C417.178101,331.614166 419.835052,331.529510 422.492096,331.477112 
	C424.212555,331.443146 425.431122,332.045563 425.506683,333.969269 
	C425.590088,336.091797 424.133881,336.310883 422.513916,336.351196 
	C420.887512,336.391663 419.262604,336.490479 416.899536,336.596985 
	C418.513519,338.480133 420.122070,338.475952 421.638733,338.493256 
	C423.203766,338.511139 424.288055,338.929810 424.149811,340.726929 
	C424.009430,342.551025 422.776459,342.740997 421.289124,342.559265 
	C419.584869,342.350983 417.973511,342.451202 416.858826,344.515991 
	C419.105316,346.002136 421.855103,344.407715 424.314148,345.974457 
z"/>
<path fill="#000000" opacity="1.000000" stroke="none" 
	d="
M738.985352,350.045929 
	C735.491699,347.310791 732.408936,345.556732 728.772522,349.396393 
	C727.556213,350.680817 725.743591,350.502014 723.462585,348.821045 
	C725.649170,343.584137 727.684204,338.028442 730.299927,332.761108 
	C731.442383,330.460480 734.026001,330.159546 735.374573,332.849182 
	C737.752380,337.591583 739.809265,342.500122 741.869568,347.394226 
	C742.902588,349.848175 741.328918,350.262634 738.985352,350.045929 
z"/>
<path fill="#000000" opacity="1.000000" stroke="none" 
	d="
M622.023682,345.191071 
	C622.516418,346.901398 623.917786,348.361420 622.206909,349.582123 
	C620.854126,350.547272 619.183228,350.239227 618.018250,349.236694 
	C614.867004,346.524902 611.934937,346.219635 608.864868,349.332428 
	C608.131226,350.076355 606.994385,350.029083 606.094360,349.372070 
	C605.172302,348.698914 604.993652,347.683594 605.389221,346.694550 
	C607.176697,342.225586 608.790894,337.664215 610.933838,333.368744 
	C612.363892,330.502289 615.494568,330.833069 617.028809,333.905792 
	C618.806580,337.466248 620.268982,341.184204 622.023682,345.191071 
z"/>
<path fill="#000000" opacity="1.000000" stroke="none" 
	d="
M687.156311,343.772125 
	C687.542786,340.437134 687.735840,337.452972 687.923279,334.468414 
	C688.047791,332.485779 688.921204,331.378510 691.083740,331.576202 
	C693.098267,331.760376 693.453918,333.041626 693.370850,334.721832 
	C693.215149,337.875153 693.378357,341.046661 692.482727,344.142242 
	C691.069763,349.025513 687.975769,351.011322 682.662842,350.301544 
	C678.069092,349.687805 676.728943,346.594635 676.746033,342.480835 
	C676.757812,339.649780 676.738403,336.818298 676.783203,333.987823 
	C676.803101,332.733917 677.182434,331.648041 678.708801,331.575562 
	C680.333008,331.498444 681.157104,332.349304 681.316406,333.928986 
	C681.600159,336.742615 681.890564,339.555573 682.185059,342.368103 
	C682.585083,346.188751 684.221741,346.659454 687.156311,343.772125 
z"/>
<path fill="#000000" opacity="1.000000" stroke="none" 
	d="
M701.095215,345.666565 
	C702.339844,345.376404 703.050354,344.845551 701.944214,344.062744 
	C700.878113,343.308258 699.541077,342.950165 698.388977,342.301056 
	C695.161194,340.482544 693.900208,336.561707 695.618408,333.864014 
	C697.101257,331.535736 704.137695,330.149780 706.089844,331.953278 
	C707.885559,333.612213 707.464539,335.271820 705.258972,336.121826 
	C704.102417,336.567535 702.706543,336.392365 700.064026,336.608307 
	C705.602661,339.042877 710.212341,341.200562 707.686157,347.375214 
	C706.455811,350.382538 701.691467,351.523010 697.513977,350.033447 
	C695.168518,349.197144 694.981384,348.706177 695.621948,344.985901 
	C697.500732,343.973999 698.985901,346.160431 701.095215,345.666565 
z"/>
<path fill="#000000" opacity="1.000000" stroke="none" 
	d="
M673.507935,348.299316 
	C671.144531,350.826599 668.450256,350.500397 665.801941,350.281219 
	C663.868713,350.121216 661.889343,349.550903 662.080994,347.214050 
	C662.319458,344.306122 664.531677,345.392395 666.268311,345.608398 
	C667.039856,345.704407 667.849243,345.495697 668.813660,345.409973 
	C668.595154,342.795715 666.383789,342.749420 665.038940,341.776245 
	C662.090149,339.642273 660.854126,337.061615 663.174561,333.733307 
	C665.032043,331.069092 670.756836,330.222870 673.062439,332.221313 
	C673.840088,332.895355 674.402466,333.712616 674.104187,334.821106 
	C673.850464,335.763824 673.061279,336.066010 672.215820,336.150970 
	C671.081909,336.264984 669.938110,336.281403 667.974670,336.381897 
	C672.502319,339.458527 677.921326,341.672272 673.507935,348.299316 
z"/>
<path fill="#000000" opacity="1.000000" stroke="none" 
	d="
M445.421570,334.509583 
	C444.737152,332.186829 445.665985,331.291779 447.515717,331.222504 
	C449.324951,331.154663 450.713440,331.749664 451.287659,333.728394 
	C451.959045,336.041901 452.806610,338.304291 453.958130,341.715729 
	C455.247162,338.463623 456.121704,336.365631 456.909790,334.235657 
	C457.575989,332.435181 458.702423,331.328644 460.671112,331.991943 
	C462.737213,332.688141 462.133087,334.365540 461.564514,335.726074 
	C459.899841,339.709381 458.132294,343.650208 456.366577,347.590454 
	C455.734894,349.000153 454.906464,350.257996 453.055511,350.067780 
	C451.460022,349.903809 450.928101,348.667053 450.435242,347.403564 
	C448.805817,343.226257 447.175690,339.049286 445.421570,334.509583 
z"/>
<path fill="#000000" opacity="1.000000" stroke="none" 
	d="
M601.163940,341.249146 
	C601.112122,343.681274 601.148621,345.672974 600.982178,347.647583 
	C600.854431,349.162323 599.895996,350.018585 598.317810,350.003174 
	C596.723999,349.987610 595.861511,349.129425 595.782410,347.562378 
	C595.674011,345.413055 595.632263,343.260376 595.563232,341.109070 
	C595.481018,338.547882 595.490540,336.002075 591.764343,336.099426 
	C590.379761,336.135620 589.830139,335.032745 589.870239,333.691345 
	C589.911621,332.304169 590.730408,331.496277 591.987122,331.340881 
	C596.106140,330.831543 600.244324,330.853882 604.370728,331.269806 
	C605.608276,331.394531 606.644531,332.013733 606.588196,333.459106 
	C606.540222,334.689514 606.027649,335.882050 604.659302,335.983246 
	C601.487244,336.217896 600.957275,338.203064 601.163940,341.249146 
z"/>
<path fill="#000000" opacity="1.000000" stroke="none" 
	d="
M637.875977,334.212219 
	C637.752197,329.345581 640.311401,331.164276 642.231567,332.227600 
	C643.625488,332.999512 643.693665,335.209320 645.728394,335.899872 
	C647.586731,332.934662 649.721680,330.155884 653.978455,331.951324 
	C654.792419,333.687134 653.250610,334.650177 652.561340,335.835632 
	C650.490662,339.397034 647.834106,342.667603 647.759399,347.105988 
	C647.736450,348.467896 647.196411,349.836609 645.480835,349.831116 
	C643.932739,349.826172 642.847473,348.798340 642.937073,347.329559 
	C643.245728,342.269684 639.787109,338.743103 637.875977,334.212219 
z"/>
<path fill="#000000" opacity="1.000000" stroke="none" 
	d="
M713.335632,331.005280 
	C716.416382,331.104004 719.062683,331.141235 721.696045,331.345306 
	C722.893799,331.438141 723.940491,332.024963 724.077576,333.441925 
	C724.162659,334.321503 723.875732,335.382996 723.086304,335.522583 
	C717.998108,336.422302 719.163818,340.357361 718.991333,343.656189 
	C718.939575,344.647430 718.981018,345.649231 718.852234,346.629425 
	C718.661499,348.081635 718.654053,349.839050 716.593994,349.889221 
	C714.410278,349.942444 713.885437,348.328125 713.809570,346.539673 
	C713.718506,344.391510 713.706055,342.239563 713.685120,340.089020 
	C713.668518,338.381378 713.608032,336.758087 711.542542,336.119232 
	C709.959595,335.629639 708.864563,334.524750 709.247192,332.804871 
	C709.667908,330.913696 711.447388,331.157104 713.335632,331.005280 
z"/>
<path fill="#000000" opacity="1.000000" stroke="none" 
	d="
M634.889160,345.824097 
	C636.823669,345.987152 638.448608,346.136383 638.307373,348.257355 
	C638.188416,350.043793 636.714111,350.061066 635.367249,350.240967 
	C625.852966,351.511688 624.954224,350.776001 624.837219,341.434601 
	C624.810181,339.275238 624.818115,337.114014 624.877197,334.955505 
	C624.929077,333.062378 625.673096,331.780212 627.847839,331.794159 
	C630.230469,331.809479 630.391907,333.487061 630.485229,335.205688 
	C630.611023,337.523193 630.652649,339.845337 630.786926,342.162231 
	C630.920410,344.466522 631.919739,345.954651 634.889160,345.824097 
z"/>
<path fill="#000000" opacity="1.000000" stroke="none" 
	d="
M814.954529,341.012573 
	C815.025940,338.387604 815.019043,336.235291 815.203247,334.099457 
	C815.311646,332.842651 816.076904,331.950684 817.469604,331.933655 
	C818.842957,331.916840 819.672607,332.781555 819.875488,333.998566 
	C820.145508,335.618103 820.217163,337.281433 820.246216,338.928192 
	C820.306519,342.353943 819.497253,346.256836 825.076416,345.972687 
	C826.113770,345.919830 826.757446,346.965210 826.690491,348.097168 
	C826.606628,349.515503 825.613159,349.907593 824.370728,350.193237 
	C816.676758,351.962402 814.985901,350.420013 814.954529,341.012573 
z"/>
<path fill="#000000" opacity="1.000000" stroke="none" 
	d="
M468.729614,347.288605 
	C468.137756,349.746918 466.767700,350.402802 464.898132,349.764099 
	C463.371216,349.242493 463.354279,347.821716 463.373260,346.441589 
	C463.423340,342.802948 463.360474,339.161682 463.470093,335.525299 
	C463.528625,333.583466 463.359680,331.253204 466.332794,331.271454 
	C469.210083,331.289062 469.236694,333.300323 469.143188,335.447662 
	C468.977448,339.251404 468.916138,343.059692 468.729614,347.288605 
z"/>
<path fill="#000000" opacity="1.000000" stroke="none" 
	d="
M806.886963,334.407928 
	C807.408508,332.176147 808.600342,331.502258 810.300598,331.982361 
	C811.593933,332.347565 811.987976,333.559448 812.006897,334.740692 
	C812.073120,338.870300 812.088989,343.002106 812.027222,347.131653 
	C812.003540,348.718719 811.459778,350.155518 809.504944,350.149628 
	C807.281799,350.142944 806.827576,348.535706 806.811584,346.758240 
	C806.775879,342.792755 806.813293,338.826630 806.886963,334.407928 
z"/>
<path fill="#000000" opacity="1.000000" stroke="none" 
	d="
M744.396362,349.127625 
	C743.179321,344.184174 743.858032,339.527557 743.758240,334.891968 
	C743.723145,333.262115 744.230591,331.888916 746.221252,331.835632 
	C748.110291,331.785095 748.999451,332.948608 749.025269,334.629364 
	C749.088989,338.782013 749.164795,342.947357 748.907898,347.087250 
	C748.752380,349.593109 747.140930,350.531647 744.396362,349.127625 
z"/>
<path fill="#000000" opacity="1.000000" stroke="none" 
	d="
M652.259338,304.893921 
	C650.551270,304.777100 648.935730,304.816284 648.906982,303.004639 
	C648.878296,301.192413 650.519348,301.094635 651.825806,301.032684 
	C654.003296,300.929504 656.216553,300.938080 657.172729,303.555115 
	C656.030762,305.415985 654.194946,304.681488 652.259338,304.893921 
z"/>
</svg>